<?xml version="1.0" encoding="UTF-8" standalone="no"?>
<svg
   xmlns:dc="http://purl.org/dc/elements/1.1/"
   xmlns:cc="http://creativecommons.org/ns#"
   xmlns:rdf="http://www.w3.org/1999/02/22-rdf-syntax-ns#"
   xmlns:svg="http://www.w3.org/2000/svg"
   xmlns="http://www.w3.org/2000/svg"
   xmlns:xlink="http://www.w3.org/1999/xlink"
   xmlns:sodipodi="http://sodipodi.sourceforge.net/DTD/sodipodi-0.dtd"
   xmlns:inkscape="http://www.inkscape.org/namespaces/inkscape"
   width="100%"
   height="100%"
   version="1.1"
   viewBox="0 0 105.83 105.83"
   id="svg933"
   sodipodi:docname="covid_medic_logo.svg"
   inkscape:version="0.92.2 5c3e80d, 2017-08-06">
  <sodipodi:namedview
     pagecolor="#ffffff"
     bordercolor="#666666"
     borderopacity="1"
     objecttolerance="10"
     gridtolerance="10"
     guidetolerance="10"
     inkscape:pageopacity="0"
     inkscape:pageshadow="2"
     inkscape:window-width="1440"
     inkscape:window-height="806"
     id="namedview935"
     showgrid="false"
     inkscape:zoom="5.0044505"
     inkscape:cx="45.327098"
     inkscape:cy="46.381292"
     inkscape:window-x="0"
     inkscape:window-y="1"
     inkscape:window-maximized="1"
     inkscape:current-layer="svg933"
     showguides="false"
     inkscape:guide-bbox="true"
     inkscape:snap-global="false">
    <sodipodi:guide
       position="56.214054,54.382978"
       orientation="1,0"
       id="guide5342"
       inkscape:locked="false" />
  </sodipodi:namedview>
  <defs
     id="defs901">
    <linearGradient
       id="b">
      <stop
         offset="0"
         id="stop895" />
      <stop
         stop-opacity="0"
         offset="1"
         id="stop897" />
    </linearGradient>
    <linearGradient
       id="a"
       x1=".25591"
       x2="106.2"
       y1="244.28"
       y2="244.28"
       gradientUnits="userSpaceOnUse"
       xlink:href="#b" />
  </defs>
  <metadata
     id="metadata903">
    <rdf:RDF>
      <cc:Work
         rdf:about="">
        <dc:format>image/svg+xml</dc:format>
        <dc:type
           rdf:resource="http://purl.org/dc/dcmitype/StillImage" />
        <dc:title />
      </cc:Work>
    </rdf:RDF>
  </metadata>
  <path
     inkscape:connector-curvature="0"
     id="path842"
     d="M 102.87601,98.87991 H 3.0361009 v 3.66993 H 102.87601 Z"
     style="opacity:1;fill:#55666f;fill-opacity:1;fill-rule:nonzero;stroke:none;stroke-width:1.62705326;stroke-linecap:round;stroke-linejoin:round;stroke-miterlimit:4;stroke-dasharray:none;paint-order:markers fill stroke" />
  <rect
     id="rect905"
     style="fill:none;stroke:none;paint-order:markers fill stroke"
     height="105.95"
     width="105.95"
     y="0.13999756"
     x="0.25591001" />
  <text
     xml:space="preserve"
     style="font-style:normal;font-weight:normal;font-size:40px;line-height:1.25;font-family:sans-serif;letter-spacing:0px;word-spacing:0px;fill:#000000;fill-opacity:1;stroke:none"
     x="23.559851"
     y="65.30217"
     id="text5354"><tspan
       sodipodi:role="line"
       id="tspan5352"
       x="23.559851"
       y="100.69279" /></text>
  <path
     style="opacity:1;fill:#55666f;fill-opacity:1;fill-rule:nonzero;stroke:none;stroke-width:1.58415413;stroke-linecap:round;stroke-linejoin:round;stroke-miterlimit:4;stroke-dasharray:none;paint-order:markers fill stroke"
     d="M 60.912109 105.42969 L 60.324219 105.42969 C 60.426927 105.43261 60.513708 105.47839 60.617188 105.47852 C 60.721282 105.47849 60.808789 105.43254 60.912109 105.42969 z "
     id="path840" />
  <path
     style="opacity:1;fill:#55666f;fill-opacity:1;fill-rule:nonzero;stroke:none;stroke-width:1.62705326;stroke-linecap:round;stroke-linejoin:round;stroke-miterlimit:4;stroke-dasharray:none;paint-order:markers fill stroke"
     d="M 51.121094,0.79492188 V 100.63483 h 3.669922 V 0.79492188 Z"
     id="rect5323"
     inkscape:connector-curvature="0" />
  <path
     sodipodi:nodetypes="cccccc"
     inkscape:connector-curvature="0"
     id="path5316"
     d="M 1.148084,44.966323 C 3.3931188,34.091411 9.5946039,9.5099734 51.965496,3.8284196 99.539784,10.241483 101.23056,36.106377 104.16569,44.620626 91.913998,35.983198 83.456554,41.57422 74.781476,46.349111 59.596309,37.409807 44.796184,36.171318 30.532301,45.657717 20.296201,37.924112 10.462665,37.03409 1.148084,44.966323 Z"
     style="fill:#8799a3;fill-opacity:1;stroke:none;stroke-width:1.37278843px;stroke-linecap:round;stroke-linejoin:round;stroke-opacity:1" />
  <path
     style="fill:#b0bcc2;fill-opacity:1;stroke:none;stroke-width:1.37278843px;stroke-linecap:round;stroke-linejoin:round;stroke-opacity:1"
     d="M 48.455332,4.3610024 C 9.2551614,10.897782 3.329103,34.399101 1.1477559,44.965509 10.462337,37.033276 20.295226,37.923661 30.531327,45.657267 33.596278,29.31819 37.966038,14.132392 48.455332,4.3610024 Z"
     id="path5312"
     inkscape:connector-curvature="0" />
  <path
     id="path5321"
     d="M 56.059186,4.3610024 C 96.28485,9.0795007 103.14039,32.992667 104.16569,44.620626 95.022143,37.885602 85.109992,39.262408 74.781476,46.349111 71.716524,30.010034 66.866904,11.107362 56.059186,4.3610024 Z"
     style="fill:#55666f;fill-opacity:1;stroke:none;stroke-width:1.37278843px;stroke-linecap:round;stroke-linejoin:round;stroke-opacity:1"
     inkscape:connector-curvature="0"
     sodipodi:nodetypes="cccc" />
  <path
     style="opacity:1;fill:#8799a3;fill-opacity:1;fill-rule:nonzero;stroke:none;stroke-width:1.08103824;stroke-linecap:round;stroke-linejoin:round;stroke-miterlimit:4;stroke-dasharray:none;paint-order:markers fill stroke"
     d="m 18.052702,57.870119 c -4.425329,-1.88e-4 -8.012814,3.587297 -8.012626,8.012625 0.0011,3.52538 2.306444,6.635808 5.679031,7.662433 -3.333278,1.016519 -5.627271,4.071001 -5.674383,7.555515 0.0031,4.99546 -0.1006124,9.993022 -0.1642503,14.988614 H 26.231127 c -0.232852,-4.984211 0.244727,-10.013986 -0.170448,-14.988614 -0.04423,-3.48639 -2.338015,-6.543945 -5.672833,-7.561714 3.369784,-1.026513 5.673822,-4.133569 5.677482,-7.656234 1.88e-4,-4.425328 -3.587297,-8.012814 -8.012626,-8.012625 z"
     id="path5375"
     inkscape:connector-curvature="0"
     sodipodi:nodetypes="cccccccccc" />
  <path
     sodipodi:nodetypes="cccccccccc"
     inkscape:connector-curvature="0"
     id="path5383"
     d="m 39.168542,57.870119 c -4.425329,-1.88e-4 -8.012814,3.587297 -8.012626,8.012625 0.0011,3.52538 2.306445,6.635808 5.679032,7.662433 -3.333278,1.016519 -5.627272,4.071001 -5.674383,7.555515 0.0031,4.99546 -0.100613,9.993022 -0.164251,14.988614 H 47.346967 C 47.114115,91.105095 47.591693,86.07532 47.17652,81.100692 c -0.04423,-3.48639 -2.338015,-6.543945 -5.672834,-7.561714 3.369785,-1.026513 5.673823,-4.133569 5.677482,-7.656234 1.88e-4,-4.425328 -3.587298,-8.012814 -8.012626,-8.012625 z"
     style="opacity:1;fill:#8799a3;fill-opacity:1;fill-rule:nonzero;stroke:none;stroke-width:1.08103824;stroke-linecap:round;stroke-linejoin:round;stroke-miterlimit:4;stroke-dasharray:none;paint-order:markers fill stroke" />
  <path
     sodipodi:nodetypes="cccccccccc"
     inkscape:connector-curvature="0"
     id="path844"
     d="m 66.052702,57.870119 c -4.425329,-1.88e-4 -8.012814,3.587297 -8.012626,8.012625 0.0011,3.52538 2.306444,6.635808 5.679031,7.662433 -3.333278,1.016519 -5.627271,4.071001 -5.674383,7.555515 0.0031,4.99546 -0.100612,9.993022 -0.16425,14.988614 h 16.350653 c -0.232852,-4.984211 0.244727,-10.013986 -0.170448,-14.988614 -0.04423,-3.48639 -2.338015,-6.543945 -5.672833,-7.561714 3.369784,-1.026513 5.673822,-4.133569 5.677482,-7.656234 1.88e-4,-4.425328 -3.587297,-8.012814 -8.012626,-8.012625 z"
     style="opacity:1;fill:#8799a3;fill-opacity:1;fill-rule:nonzero;stroke:none;stroke-width:1.08103824;stroke-linecap:round;stroke-linejoin:round;stroke-miterlimit:4;stroke-dasharray:none;paint-order:markers fill stroke" />
  <path
     style="opacity:1;fill:#8799a3;fill-opacity:1;fill-rule:nonzero;stroke:none;stroke-width:1.08103824;stroke-linecap:round;stroke-linejoin:round;stroke-miterlimit:4;stroke-dasharray:none;paint-order:markers fill stroke"
     d="m 87.168542,57.870119 c -4.425329,-1.88e-4 -8.012814,3.587297 -8.012626,8.012625 0.0011,3.52538 2.306445,6.635808 5.679032,7.662433 -3.333278,1.016519 -5.627272,4.071001 -5.674383,7.555515 0.0031,4.99546 -0.100613,9.993022 -0.164251,14.988614 H 95.34697 c -0.23286,-4.984211 0.24472,-10.013986 -0.17045,-14.988614 -0.0442,-3.48639 -2.33802,-6.543945 -5.67283,-7.561714 3.36978,-1.026513 5.67382,-4.133569 5.67748,-7.656234 1.9e-4,-4.425328 -3.5873,-8.012814 -8.012628,-8.012625 z"
     id="path846"
     inkscape:connector-curvature="0"
     sodipodi:nodetypes="cccccccccc" />
</svg>
